{"title":"John Carter 2012 FULL CAM READ-NFO XviD - TAPE.","uid":7098703,"size":1465384932,"categoryP":"video","categoryS":"movies","magnet":"?xt=urn:btih:cfbf5e1b3eb0b49781d6cd359969cd4aa59b1d62&amp;dn=John+Carter+2012+FULL+CAM+READ-NFO+XviD+-+TAPE.&amp;tr=udp%3A%2F%2Ftracker.openbittorrent.com%3A80&amp;tr=udp%3A%2F%2Fopen.demonii.com%3A1337&amp;tr=udp%3A%2F%2Ftracker.coppersurfer.tk%3A6969&amp;tr=udp%3A%2F%2Fexodus.desync.com%3A6969","seeders":0,"leechers":0,"uploader":"moviesp2p","files":102,"time":1331632909,"description":"More info www MoviesP2P com\n\n\n----------------------------------\n\nJohn Carter 2012 FULL CAM READNFO XviD - TAPE\n &lt;a href=&quot;\nhttp://www.imdb.com/title/tt0401729/&quot; rel=&quot;nofollow&quot; target=&quot;_NEW&quot;&gt;\nhttp://www.imdb.com/title/tt0401729/&lt;/a&gt;\n\nVideo\nID                               : 0\nFormat                           : MPEG-4 Visual\nFormat profile                   : Advanced Simple@L5\nFormat settings, BVOP            : 2\nFormat settings, QPel            : No\nFormat settings, GMC             : No warppoints\nFormat settings, Matrix          : Default (H.263)\nMuxing mode                      : Packed bitstream\nCodec ID                         : XVID\nCodec ID/Hint                    : XviD\nDuration                         : 2h 0mn\nBit rate                         : 1 485 Kbps\nWidth                            : 720 pixels\nHeight                           : 356 pixels\nDisplay aspect ratio             : 2.022\nFrame rate                       : 25.000 fps\nColor space                      : YUV\nChroma subsampling               : 4:2:0\nBit depth                        : 8 bits\nScan type                        : Progressive\nCompression mode                 : Lossy\nBits/(Pixel*Frame)               : 0.232\nStream size                      : 1.25 GiB (92%)\nWriting library                  : XviD 64\n\nAudio\nID                               : 1\nFormat                           : MPEG Audio\nFormat version                   : Version 1\nFormat profile                   : Layer 3\nMode                             : Joint stereo\nMode extension                   : MS Stereo\nCodec ID                         : 55\nCodec ID/Hint                    : MP3\nDuration                         : 2h 0mn\nBit rate mode                    : Constant\nBit rate                         : 128 Kbps\nChannel(s)                       : 2 channels\nSampling rate                    : 44.1 KHz\nCompression mode                 : Lossy\nStream size                      : 110 MiB (8%)\nAlignment                        : Split accross interleaves\nInterleave, duration             : 40 ms (1.00 video frame)\n\n\nSources - \n DeeP / own / who knows ... thanks :D\n\n\naudio is a mix of \ndecent line and good cam\nfirst 19 minutes are line, then rest is cam\nhardcoded subs in english for alien speak\n","torrent":{"xt":"urn:btih:cfbf5e1b3eb0b49781d6cd359969cd4aa59b1d62","amp;dn":"John+Carter+2012+FULL+CAM+READ-NFO+XviD+-+TAPE.","amp;tr":["udp%3A%2F%2Ftracker.openbittorrent.com%3A80","udp%3A%2F%2Fopen.demonii.com%3A1337","udp%3A%2F%2Ftracker.coppersurfer.tk%3A6969","udp%3A%2F%2Fexodus.desync.com%3A6969"],"infoHash":"cfbf5e1b3eb0b49781d6cd359969cd4aa59b1d62","infoHashBuffer":{"type":"Buffer","data":[207,191,94,27,62,176,180,151,129,214,205,53,153,105,205,74,165,155,29,98]},"announce":[],"urlList":[]}}